<svg width="28" height="29" viewBox="0 0 28 29" fill="none" xmlns="http://www.w3.org/2000/svg">
<path d="M14 4.39404C7.71772 4.39404 2.625 8.40953 2.625 13.3628C2.625 16.5652 4.75409 19.3751 7.95681 20.9618C7.78258 21.5627 6.83714 24.8276 6.79952 25.0841C6.79952 25.0841 6.77688 25.2768 6.90167 25.3503C7.02647 25.4238 7.17325 25.3667 7.17325 25.3667C7.53113 25.3167 11.3233 22.653 11.9796 22.1905C12.6353 22.2833 13.3105 22.3315 14 22.3315C20.2823 22.3315 25.375 18.3162 25.375 13.3628C25.375 8.40953 20.2823 4.39404 14 4.39404Z" fill="#371D1E"/>
<path d="M7.71094 16.4937C7.34902 16.4937 7.05469 16.2126 7.05469 15.8669V11.9683H6.03072C5.67558 11.9683 5.38672 11.6799 5.38672 11.3257C5.38672 10.9714 5.67569 10.6831 6.03072 10.6831H9.39116C9.7463 10.6831 10.0352 10.9714 10.0352 11.3257C10.0352 11.6799 9.74619 11.9683 9.39116 11.9683H8.36719V15.8669C8.36719 16.2126 8.07286 16.4937 7.71094 16.4937ZM13.4654 16.4851C13.1917 16.4851 12.9824 16.374 12.9193 16.1953L12.5943 15.3446L10.5932 15.3444L10.268 16.1957C10.2051 16.3741 9.99589 16.4851 9.72223 16.4851C9.57829 16.4853 9.436 16.4544 9.30508 16.3946C9.12417 16.3111 8.95027 16.0816 9.14955 15.4627L10.7193 11.3309C10.8299 11.0167 11.1658 10.6929 11.5932 10.6832C12.0218 10.6928 12.3577 11.0167 12.4685 11.3316L14.0376 15.4615C14.2373 16.0819 14.0634 16.3114 13.8825 16.3947C13.7516 16.4544 13.6093 16.4852 13.4654 16.4851C13.4654 16.4851 13.4653 16.4851 13.4654 16.4851ZM12.2492 14.1821L11.5938 12.32L10.9383 14.1821H12.2492ZM15.0938 16.3979C14.7469 16.3979 14.4648 16.128 14.4648 15.7964V11.3394C14.4648 10.9774 14.7654 10.6831 15.1348 10.6831C15.5041 10.6831 15.8047 10.9774 15.8047 11.3394V15.1948H17.1992C17.546 15.1948 17.8281 15.4648 17.8281 15.7964C17.8281 16.128 17.546 16.3979 17.1992 16.3979H15.0938ZM18.7397 16.4851C18.3777 16.4851 18.0834 16.1908 18.0834 15.8289V11.3394C18.0834 10.9774 18.3777 10.6831 18.7397 10.6831C19.1016 10.6831 19.3959 10.9774 19.3959 11.3394V12.7499L21.2268 10.9189C21.321 10.8247 21.4504 10.7729 21.5908 10.7729C21.7547 10.7729 21.9192 10.8436 22.0425 10.9667C22.1574 11.0816 22.226 11.2293 22.2354 11.3828C22.2449 11.5375 22.1934 11.6794 22.0906 11.7823L20.5951 13.2776L22.2105 15.4176C22.2626 15.4863 22.3006 15.5646 22.3222 15.6481C22.3439 15.7315 22.3487 15.8184 22.3365 15.9038C22.3248 15.9892 22.2962 16.0714 22.2525 16.1457C22.2088 16.22 22.1508 16.2849 22.0818 16.3366C21.9683 16.4228 21.8296 16.4694 21.6871 16.469C21.5854 16.4695 21.485 16.4462 21.394 16.4009C21.303 16.3556 21.2238 16.2896 21.1629 16.2082L19.6238 14.169L19.3961 14.3967V15.8285C19.3959 16.0026 19.3267 16.1695 19.2036 16.2926C19.0806 16.4156 18.9137 16.4849 18.7397 16.4851Z" fill="#FAE100"/>
</svg>
