<svg width="332" height="332" viewBox="0 0 332 332" fill="none" xmlns="http://www.w3.org/2000/svg">
<rect x="54" y="41" width="224" height="224" rx="43" fill="#3B82F6"/>
<ellipse cx="133.5" cy="110.5" rx="26.5" ry="35.5" fill="white"/>
<ellipse cx="135.5" cy="124.5" rx="12.5" ry="14.5" fill="black"/>
<ellipse cx="198.5" cy="110.5" rx="26.5" ry="35.5" fill="white"/>
<ellipse cx="198.5" cy="124.5" rx="12.5" ry="14.5" fill="black"/>
<path d="M137 157L139.255 158.424C155.329 168.576 175.769 168.734 191.998 158.832L195 157" stroke="black" stroke-width="8" stroke-linecap="round"/>
<path d="M274.507 147.703L167.381 182.215C165.735 182.745 163.963 182.739 162.32 182.198L57.8262 147.76C52.3518 145.955 46.7814 150.236 47.1159 155.991L52.8829 255.204C53.0873 258.719 55.5211 261.707 58.9218 262.619L162.746 290.452C164.123 290.821 165.573 290.823 166.951 290.458L272.181 262.588C275.56 261.693 277.995 258.748 278.238 255.261L285.159 156.045C285.561 150.278 280.009 145.93 274.507 147.703Z" fill="#0063EE"/>
<path d="M76.046 203.124L145.311 225.09C146.415 225.441 147.177 226.451 147.21 227.609L148.049 257.301C148.101 259.156 146.359 260.529 144.581 259.996C131.502 256.073 86.4945 242.566 76.7023 239.536C75.6549 239.212 74.9479 238.307 74.8657 237.213C74.439 231.538 73.1194 213.821 72.6601 205.712C72.5559 203.873 74.2906 202.568 76.046 203.124Z" fill="white"/>
<path d="M143.826 199.219L74.7984 178.38C74.0329 178.149 73.2105 177.979 72.4719 178.285C71.7344 178.591 70.9214 179.266 70.9214 180.754C70.9214 184.198 72.2826 185.745 73.6439 186.199L141.939 206.286C142.688 206.506 143.469 206.648 144.237 206.507C145.587 206.259 147.151 205.546 147.151 203.895C147.151 202.996 146.997 202.221 146.783 201.589C146.353 200.313 145.115 199.608 143.826 199.219Z" fill="white"/>
<circle cx="283.276" cy="207.979" r="23.1413" fill="#3B82F6"/>
<circle cx="49.1413" cy="207.979" r="23.1413" fill="#3B82F6"/>
<ellipse cx="233.5" cy="145.5" rx="15.5" ry="10.5" fill="#FF7F81"/>
<ellipse cx="97.5" cy="145.5" rx="15.5" ry="10.5" fill="#FF7F81"/>
</svg>
