<svg width="18" height="18" viewBox="0 0 18 18" fill="none" xmlns="http://www.w3.org/2000/svg">
<g clip-path="url(#clip0_84_6125)">
<path d="M9.81263 2.30642C9.66357 1.99705 9.34857 1.80017 9.00263 1.80017C8.65669 1.80017 8.34451 1.99705 8.19263 2.30642L6.38419 6.02736L2.34544 6.62361C2.00794 6.67423 1.72669 6.91048 1.62263 7.23392C1.51857 7.55736 1.60294 7.91455 1.84482 8.15361L4.77544 11.0533L4.08357 15.1511C4.02732 15.4886 4.16794 15.8317 4.44638 16.0314C4.72482 16.2311 5.09326 16.2564 5.39701 16.0961L9.00545 14.1695L12.6139 16.0961C12.9176 16.2564 13.2861 16.2339 13.5645 16.0314C13.8429 15.8289 13.9836 15.4886 13.9273 15.1511L13.2326 11.0533L16.1633 8.15361C16.4051 7.91455 16.4923 7.55736 16.3854 7.23392C16.2786 6.91048 16.0001 6.67423 15.6626 6.62361L11.6211 6.02736L9.81263 2.30642Z" fill="#22C55E"/>
</g>
<defs>
<clipPath id="clip0_84_6125">
<rect width="16.2" height="14.4" fill="white" transform="translate(0.899902 1.80005)"/>
</clipPath>
</defs>
</svg>
