<svg width="18" height="18" viewBox="0 0 18 18" fill="none" xmlns="http://www.w3.org/2000/svg">
<g clip-path="url(#clip0_84_6153)">
<path d="M8.99715 1.80017C9.2559 1.80017 9.49215 1.94642 9.60465 2.17986L11.534 6.15392L15.8428 6.78955C16.0959 6.82611 16.3068 7.0033 16.3856 7.24798C16.4643 7.49267 16.3997 7.75705 16.2197 7.93705L13.095 11.0364L13.8318 15.4127C13.874 15.6658 13.77 15.9217 13.5618 16.0736C13.3537 16.2255 13.0753 16.2424 12.8503 16.1214L8.99715 14.0627L5.14684 16.1186C4.91903 16.2395 4.6434 16.2227 4.43528 16.0708C4.22715 15.9189 4.12028 15.663 4.16247 15.4099L4.89934 11.0336L1.77465 7.93705C1.59184 7.75705 1.52997 7.48986 1.60872 7.24798C1.68747 7.00611 1.8984 6.82892 2.15153 6.78955L6.46028 6.15392L8.38965 2.17986C8.50497 1.94642 8.7384 1.80017 8.99715 1.80017ZM8.99715 4.02205L7.52059 7.06517C7.42215 7.26486 7.23372 7.40548 7.01153 7.43923L3.68434 7.92861L6.10028 10.322C6.25497 10.4767 6.32809 10.6961 6.29153 10.9127L5.72059 14.2792L8.67934 12.6986C8.87903 12.5917 9.11809 12.5917 9.31497 12.6986L12.2737 14.2792L11.7056 10.9155C11.669 10.6989 11.7393 10.4795 11.8968 10.3249L14.3128 7.93142L10.9856 7.43923C10.7662 7.40548 10.575 7.26767 10.4765 7.06517L8.99715 4.02205Z" fill="#F97316"/>
</g>
<defs>
<clipPath id="clip0_84_6153">
<rect width="16.2" height="14.4" fill="white" transform="translate(0.899902 1.80005)"/>
</clipPath>
</defs>
</svg>
