<svg width="18" height="19" viewBox="0 0 18 19" fill="none" xmlns="http://www.w3.org/2000/svg">
<g clip-path="url(#clip0_84_6136)">
<path d="M9.09992 1.99976C8.75679 2.00257 8.44461 2.19663 8.29554 2.50601L6.48429 6.22694L2.44554 6.82319C2.10804 6.87382 1.82679 7.11007 1.72273 7.43351C1.61867 7.75694 1.70304 8.11413 1.94492 8.35319L4.87554 11.2529L4.18367 15.3507C4.12742 15.6882 4.26804 16.0313 4.54648 16.231C4.82492 16.4307 5.19336 16.456 5.49711 16.2957L9.09992 14.3691V1.99976ZM13.0909 16.3998C13.1218 16.4026 13.1499 16.4026 13.1809 16.3998H13.0909Z" fill="#EAB308"/>
</g>
<g clip-path="url(#clip1_84_6136)">
<g clip-path="url(#clip2_84_6136)">
<path d="M9.09725 1.99976C9.356 1.99976 9.59225 2.14601 9.70475 2.37944L11.6341 6.35351L15.9429 6.98913C16.196 7.02569 16.4069 7.20288 16.4857 7.44757C16.5644 7.69226 16.4998 7.95663 16.3198 8.13663L13.1951 11.236L13.9319 15.6123C13.9741 15.8654 13.8701 16.1213 13.6619 16.2732C13.4538 16.4251 13.1754 16.4419 12.9504 16.321L9.09725 14.2623L5.24694 16.3182C5.01913 16.4391 4.7435 16.4223 4.53538 16.2704C4.32725 16.1185 4.22038 15.8626 4.26256 15.6094L4.99944 11.2332L1.87475 8.13663C1.69194 7.95663 1.63006 7.68944 1.70881 7.44757C1.78756 7.20569 1.9985 7.02851 2.25163 6.98913L6.56038 6.35351L8.48975 2.37944C8.60506 2.14601 8.8385 1.99976 9.09725 1.99976ZM9.09725 4.22163L7.62069 7.26476C7.52225 7.46444 7.33381 7.60507 7.11163 7.63882L3.78444 8.12819L6.20038 10.5216C6.35506 10.6763 6.42819 10.8957 6.39163 11.1123L5.82069 14.4788L8.77944 12.8982C8.97913 12.7913 9.21819 12.7913 9.41506 12.8982L12.3738 14.4788L11.8057 11.1151C11.7691 10.8985 11.8394 10.6791 11.9969 10.5244L14.4129 8.13101L11.0857 7.63882C10.8663 7.60507 10.6751 7.46726 10.5766 7.26476L9.09725 4.22163Z" fill="#EAB308"/>
</g>
</g>
<defs>
<clipPath id="clip0_84_6136">
<rect width="16.2" height="14.4" fill="white" transform="translate(1 2)"/>
</clipPath>
<clipPath id="clip1_84_6136">
<rect width="16.2" height="14.4" fill="white" transform="translate(1 2)"/>
</clipPath>
<clipPath id="clip2_84_6136">
<rect width="16.2" height="14.4" fill="white" transform="translate(1 2)"/>
</clipPath>
</defs>
</svg>
