<svg width="22" height="22" viewBox="0 0 22 22" fill="none" xmlns="http://www.w3.org/2000/svg">
<path d="M22 22H0V0H22V22Z" />
<g clip-path="url(#clip0_106_10621)">
<g clip-path="url(#clip1_106_10621)">
<path d="M8.64477 4.50334L8.44002 4.91H5.71002C5.20667 4.91 4.80002 5.31666 4.80002 5.82C4.80002 6.32334 5.20667 6.73 5.71002 6.73H16.63C17.1334 6.73 17.54 6.32334 17.54 5.82C17.54 5.31666 17.1334 4.91 16.63 4.91H13.9L13.6953 4.50334C13.5417 4.19338 13.226 4 12.882 4H9.45808C9.11399 4 8.79833 4.19338 8.64477 4.50334ZM16.63 7.64H5.71002L6.31289 17.2803C6.35839 17.9998 6.95558 18.56 7.67505 18.56H14.665C15.3845 18.56 15.9816 17.9998 16.0271 17.2803L16.63 7.64Z" fill="#333C55"/>
</g>
</g>
<defs>
<clipPath id="clip0_106_10621">
<rect width="12.74" height="14.56" fill="white" transform="translate(4.80002 4)"/>
</clipPath>
<clipPath id="clip1_106_10621">
<path d="M4.80002 4H17.54V18.56H4.80002V4Z" fill="white"/>
</clipPath>
</defs>
</svg>
