<svg width="34" height="35" viewBox="0 0 34 35" fill="none" xmlns="http://www.w3.org/2000/svg">
<path d="M10.9036 11.1036C11.0274 10.9798 11.1953 10.9103 11.3703 10.9103C11.5454 10.9103 11.7133 10.9798 11.837 11.1036L16.9706 16.2372L22.1042 11.1036C22.228 10.9798 22.3959 10.9103 22.5709 10.9103C22.7459 10.9103 22.9138 10.9798 23.0376 11.1036C23.1614 11.2274 23.2309 11.3952 23.2309 11.5703C23.2309 11.7453 23.1614 11.9132 23.0376 12.037L17.904 17.1706L23.0376 22.3042C23.1614 22.4279 23.2309 22.5958 23.2309 22.7709C23.2309 22.9459 23.1614 23.1138 23.0376 23.2376C22.9138 23.3613 22.7459 23.4309 22.5709 23.4309C22.3959 23.4309 22.228 23.3613 22.1042 23.2376L16.9706 18.104L11.837 23.2376C11.7133 23.3613 11.5454 23.4309 11.3703 23.4309C11.1953 23.4309 11.0274 23.3613 10.9036 23.2376C10.7799 23.1138 10.7103 22.9459 10.7103 22.7709C10.7103 22.5958 10.7799 22.4279 10.9036 22.3042L16.0372 17.1706L10.9036 12.037C10.7799 11.9132 10.7103 11.7453 10.7103 11.5703C10.7103 11.3953 10.7799 11.2274 10.9036 11.1036Z" fill="black"/>
</svg>
