<svg width="20" height="20" viewBox="0 0 20 20" fill="currentColor" xmlns="http://www.w3.org/2000/svg">
<path d="M9.95832 15C10.25 15 10.4967 14.8991 10.6983 14.6975C10.9 14.4958 11.0005 14.2494 11 13.9583C10.9994 13.6672 10.8989 13.4205 10.6983 13.2183C10.4978 13.0161 10.2511 12.9155 9.95832 12.9166C9.66555 12.9177 9.41916 13.0186 9.21916 13.2191C9.01916 13.4197 8.91832 13.6661 8.91666 13.9583C8.91499 14.2505 9.01582 14.4972 9.21916 14.6983C9.42249 14.8994 9.66888 15 9.95832 15ZM9.20832 11.7916H10.75C10.75 11.3333 10.8022 10.9722 10.9067 10.7083C11.0111 10.4444 11.3061 10.0833 11.7917 9.62496C12.1528 9.26385 12.4375 8.91996 12.6458 8.5933C12.8542 8.26663 12.9583 7.87441 12.9583 7.41663C12.9583 6.63885 12.6736 6.04163 12.1042 5.62496C11.5347 5.2083 10.8611 4.99996 10.0833 4.99996C9.29166 4.99996 8.64944 5.2083 8.15666 5.62496C7.66388 6.04163 7.31999 6.54163 7.12499 7.12496L8.49999 7.66663C8.56943 7.41663 8.72582 7.1458 8.96916 6.85413C9.21249 6.56246 9.58388 6.41663 10.0833 6.41663C10.5278 6.41663 10.8611 6.5383 11.0833 6.78163C11.3055 7.02496 11.4167 7.29219 11.4167 7.5833C11.4167 7.86107 11.3333 8.12163 11.1667 8.36496C11 8.6083 10.7917 8.83385 10.5417 9.04163C9.93055 9.5833 9.55555 9.99302 9.41666 10.2708C9.27777 10.5486 9.20832 11.0555 9.20832 11.7916ZM9.99999 18.3333C8.84721 18.3333 7.76388 18.1147 6.74999 17.6775C5.7361 17.2402 4.85416 16.6464 4.10416 15.8958C3.35416 15.1452 2.76055 14.2633 2.32332 13.25C1.8861 12.2366 1.66721 11.1533 1.66666 9.99996C1.6661 8.84663 1.88499 7.7633 2.32332 6.74996C2.76166 5.73663 3.35527 4.85469 4.10416 4.10413C4.85305 3.35357 5.73499 2.75996 6.74999 2.3233C7.76499 1.88663 8.84832 1.66774 9.99999 1.66663C11.1517 1.66552 12.235 1.88441 13.25 2.3233C14.265 2.76219 15.1469 3.3558 15.8958 4.10413C16.6447 4.85246 17.2386 5.73441 17.6775 6.74996C18.1164 7.76552 18.335 8.84885 18.3333 9.99996C18.3317 11.1511 18.1128 12.2344 17.6767 13.25C17.2405 14.2655 16.6469 15.1475 15.8958 15.8958C15.1447 16.6441 14.2628 17.238 13.25 17.6775C12.2372 18.1169 11.1539 18.3355 9.99999 18.3333ZM9.99999 16.6666C11.8611 16.6666 13.4375 16.0208 14.7292 14.7291C16.0208 13.4375 16.6667 11.8611 16.6667 9.99996C16.6667 8.13885 16.0208 6.56246 14.7292 5.2708C13.4375 3.97913 11.8611 3.3333 9.99999 3.3333C8.13888 3.3333 6.56249 3.97913 5.27082 5.2708C3.97916 6.56246 3.33332 8.13885 3.33332 9.99996C3.33332 11.8611 3.97916 13.4375 5.27082 14.7291C6.56249 16.0208 8.13888 16.6666 9.99999 16.6666Z"/>
</svg>
