<svg width="25" height="24" viewBox="0 0 25 24" fill="currentColor" xmlns="http://www.w3.org/2000/svg">
<path d="M4.125 19V10C4.125 9.68333 4.196 9.38333 4.338 9.1C4.48 8.81667 4.67567 8.58333 4.925 8.4L10.925 3.9C11.275 3.63333 11.675 3.5 12.125 3.5C12.575 3.5 12.975 3.63333 13.325 3.9L19.325 8.4C19.575 8.58333 19.771 8.81667 19.913 9.1C20.055 9.38333 20.1257 9.68333 20.125 10V19C20.125 19.55 19.929 20.021 19.537 20.413C19.145 20.805 18.6743 21.0007 18.125 21H15.125C14.8417 21 14.6043 20.904 14.413 20.712C14.2217 20.52 14.1257 20.2827 14.125 20V15C14.125 14.7167 14.029 14.4793 13.837 14.288C13.645 14.0967 13.4077 14.0007 13.125 14H11.125C10.8417 14 10.6043 14.096 10.413 14.288C10.2217 14.48 10.1257 14.7173 10.125 15V20C10.125 20.2833 10.029 20.521 9.837 20.713C9.645 20.905 9.40767 21.0007 9.125 21H6.125C5.575 21 5.10433 20.8043 4.713 20.413C4.32167 20.0217 4.12567 19.5507 4.125 19Z" />
</svg>
