<svg width="119" height="34" viewBox="0 0 119 34" fill="none" xmlns="http://www.w3.org/2000/svg">
<path d="M118.2 33.2002H0V0H118.2V33.2002Z"/>
<rect x="5.3999" y="4.09998" width="22.4" height="22.4" rx="4.3" fill="#3B82F6"/>
<ellipse cx="13.35" cy="11.05" rx="2.65" ry="3.55" fill="white"/>
<ellipse cx="13.55" cy="12.45" rx="1.25" ry="1.45" fill="black"/>
<ellipse cx="19.85" cy="11.05" rx="2.65" ry="3.55" fill="white"/>
<ellipse cx="19.8501" cy="12.45" rx="1.25" ry="1.45" fill="black"/>
<path d="M13.7 15.7L13.9255 15.8424C15.5328 16.8576 17.5769 16.8734 19.1997 15.8832L19.5 15.7" stroke="black" stroke-width="0.8" stroke-linecap="round"/>
<path d="M27.4506 14.7703L16.738 18.2215C16.5734 18.2745 16.3962 18.2739 16.2319 18.2198L5.78257 14.776C5.23513 14.5956 4.6781 15.0237 4.71154 15.5991L5.28825 25.5204C5.30868 25.8719 5.55206 26.1707 5.89214 26.2619L16.2745 29.0452C16.4122 29.0821 16.5573 29.0823 16.6951 29.0458L27.2181 26.2588C27.556 26.1693 27.7994 25.8748 27.8238 25.5261L28.5158 15.6045C28.5561 15.0278 28.0009 14.593 27.4506 14.7703Z" fill="#0063EE"/>
<path d="M7.60455 20.3124L14.5311 22.509C14.6415 22.5441 14.7177 22.6451 14.7209 22.7609L14.8048 25.7301C14.8101 25.9156 14.6358 26.0529 14.4581 25.9996C13.1501 25.6073 8.6494 24.2566 7.67018 23.9536C7.56545 23.9212 7.49474 23.8307 7.48652 23.7213C7.44385 23.1538 7.31189 21.3821 7.26596 20.5712C7.25554 20.3873 7.42901 20.2568 7.60455 20.3124Z" fill="white"/>
<path d="M14.3825 19.9219L7.47974 17.838C7.40319 17.8149 7.32095 17.7979 7.24709 17.8286C7.17335 17.8592 7.09204 17.9266 7.09204 18.0754C7.09204 18.4198 7.22817 18.5745 7.36429 18.6199L14.1938 20.6286C14.2687 20.6506 14.3469 20.6648 14.4236 20.6507C14.5586 20.6259 14.715 20.5546 14.715 20.3895C14.715 20.2997 14.6996 20.2221 14.6782 20.1589C14.6352 20.0313 14.5114 19.9608 14.3825 19.9219Z" fill="white"/>
<circle cx="28.3276" cy="20.7979" r="2.31413" fill="#3B82F6"/>
<circle cx="4.91422" cy="20.7979" r="2.31413" fill="#3B82F6"/>
<ellipse cx="23.35" cy="14.55" rx="1.55" ry="1.05" fill="#FF7F81"/>
<ellipse cx="9.74995" cy="14.55" rx="1.55" ry="1.05" fill="#FF7F81"/>
<path d="M42.6 22.6V9.27998H46L51.52 18.62V9.27998H54.18V22.6H50.82L45.26 13.2V22.6H42.6ZM61.735 22.9C60.0816 22.9 58.775 22.42 57.815 21.46C56.855 20.5 56.375 19.1666 56.375 17.46C56.375 16.34 56.5816 15.3733 56.995 14.56C57.4083 13.7466 57.9883 13.12 58.735 12.68C59.495 12.24 60.3816 12.02 61.395 12.02C62.8883 12.02 64.035 12.5 64.835 13.46C65.635 14.42 66.035 15.8066 66.035 17.62C66.035 17.74 66.035 17.86 66.035 17.98C66.035 18.0866 66.0283 18.1933 66.015 18.3H59.215C59.4816 19.74 60.435 20.46 62.075 20.46C62.5816 20.46 63.095 20.4 63.615 20.28C64.1483 20.1466 64.615 19.9733 65.015 19.76L65.475 22.02C64.3683 22.6066 63.1216 22.9 61.735 22.9ZM59.195 16.18H63.335C63.295 15.6066 63.095 15.1533 62.735 14.82C62.375 14.4733 61.895 14.3 61.295 14.3C60.7216 14.3 60.2483 14.4666 59.875 14.8C59.515 15.1333 59.2883 15.5933 59.195 16.18ZM69.9845 22.6L66.9845 12.3H69.8645L71.7045 19.12L73.6845 12.36L76.8645 12.1L79.0045 19.32L80.8845 12.3H83.5645L80.4245 22.6H77.3445L75.2245 15.12L73.0045 22.6H69.9845ZM88.7567 22.86C87.97 22.86 87.2233 22.7733 86.5167 22.6C85.8233 22.4266 85.23 22.1933 84.7367 21.9L84.9767 19.22C85.5767 19.5933 86.2033 19.8866 86.8567 20.1C87.5233 20.3 88.1367 20.4 88.6967 20.4C89.3367 20.4 89.8567 20.2666 90.2567 20C90.6567 19.7333 90.8567 19.38 90.8567 18.94C90.8567 18.62 90.7567 18.3733 90.5567 18.2C90.3567 18.0133 90.0967 17.8533 89.7767 17.72C89.4567 17.5866 89.1033 17.44 88.7167 17.28C88.2767 17.0933 87.8233 16.9 87.3567 16.7C86.9033 16.5 86.4767 16.26 86.0767 15.98C85.69 15.6866 85.37 15.3133 85.1167 14.86C84.8767 14.4066 84.7567 13.8333 84.7567 13.14C84.7567 11.8733 85.19 10.8733 86.0567 10.14C86.9233 9.39331 88.13 9.01998 89.6767 9.01998C90.8633 9.01998 92.0633 9.25998 93.2767 9.73998L92.8367 12.38C92.3433 12.1 91.81 11.88 91.2367 11.72C90.6767 11.56 90.1433 11.48 89.6367 11.48C89.01 11.48 88.5233 11.6066 88.1767 11.86C87.83 12.1 87.6567 12.4266 87.6567 12.84C87.6567 13.2266 87.7967 13.5266 88.0767 13.74C88.37 13.94 88.7367 14.1333 89.1767 14.32C89.6167 14.5066 90.0967 14.7 90.6167 14.9C91.15 15.0866 91.65 15.3333 92.1167 15.64C92.5967 15.9333 92.99 16.3333 93.2967 16.84C93.6033 17.3333 93.7567 17.9733 93.7567 18.76C93.7567 20.0533 93.3167 21.06 92.4367 21.78C91.57 22.5 90.3433 22.86 88.7567 22.86ZM100.817 22.9C99.1636 22.9 97.857 22.42 96.897 21.46C95.937 20.5 95.457 19.1666 95.457 17.46C95.457 16.34 95.6636 15.3733 96.077 14.56C96.4903 13.7466 97.0703 13.12 97.817 12.68C98.577 12.24 99.4636 12.02 100.477 12.02C101.97 12.02 103.117 12.5 103.917 13.46C104.717 14.42 105.117 15.8066 105.117 17.62C105.117 17.74 105.117 17.86 105.117 17.98C105.117 18.0866 105.11 18.1933 105.097 18.3H98.297C98.5636 19.74 99.517 20.46 101.157 20.46C101.664 20.46 102.177 20.4 102.697 20.28C103.23 20.1466 103.697 19.9733 104.097 19.76L104.557 22.02C103.45 22.6066 102.204 22.9 100.817 22.9ZM98.277 16.18H102.417C102.377 15.6066 102.177 15.1533 101.817 14.82C101.457 14.4733 100.977 14.3 100.377 14.3C99.8036 14.3 99.3303 14.4666 98.957 14.8C98.597 15.1333 98.3703 15.5933 98.277 16.18ZM112.184 22.9C110.531 22.9 109.224 22.42 108.264 21.46C107.304 20.5 106.824 19.1666 106.824 17.46C106.824 16.34 107.031 15.3733 107.444 14.56C107.858 13.7466 108.438 13.12 109.184 12.68C109.944 12.24 110.831 12.02 111.844 12.02C113.338 12.02 114.484 12.5 115.284 13.46C116.084 14.42 116.484 15.8066 116.484 17.62C116.484 17.74 116.484 17.86 116.484 17.98C116.484 18.0866 116.478 18.1933 116.464 18.3H109.664C109.931 19.74 110.884 20.46 112.524 20.46C113.031 20.46 113.544 20.4 114.064 20.28C114.598 20.1466 115.064 19.9733 115.464 19.76L115.924 22.02C114.818 22.6066 113.571 22.9 112.184 22.9ZM109.644 16.18H113.784C113.744 15.6066 113.544 15.1533 113.184 14.82C112.824 14.4733 112.344 14.3 111.744 14.3C111.171 14.3 110.698 14.4666 110.324 14.8C109.964 15.1333 109.738 15.5933 109.644 16.18Z" fill="#1F2937"/>
</svg>
