<svg width="110" height="34" viewBox="0 0 110 34" fill="none" xmlns="http://www.w3.org/2000/svg">
<rect x="5.3999" y="4.09998" width="22.4" height="22.4" rx="4.3" fill="#3B82F6"/>
<ellipse cx="13.35" cy="11.05" rx="2.65" ry="3.55" fill="white"/>
<ellipse cx="13.55" cy="12.45" rx="1.25" ry="1.45" fill="black"/>
<ellipse cx="19.85" cy="11.05" rx="2.65" ry="3.55" fill="white"/>
<ellipse cx="19.8501" cy="12.45" rx="1.25" ry="1.45" fill="black"/>
<path d="M13.7 15.7L13.9255 15.8424C15.5328 16.8576 17.5769 16.8734 19.1997 15.8832L19.5 15.7" stroke="black" stroke-width="0.8" stroke-linecap="round"/>
<path d="M27.4506 14.7703L16.738 18.2215C16.5734 18.2745 16.3962 18.2739 16.2319 18.2198L5.78257 14.776C5.23513 14.5956 4.6781 15.0237 4.71154 15.5991L5.28825 25.5204C5.30868 25.8719 5.55206 26.1707 5.89214 26.2619L16.2745 29.0452C16.4122 29.0821 16.5573 29.0823 16.6951 29.0458L27.2181 26.2588C27.556 26.1693 27.7994 25.8748 27.8238 25.5261L28.5158 15.6045C28.5561 15.0278 28.0009 14.593 27.4506 14.7703Z" fill="#0063EE"/>
<path d="M7.60455 20.3124L14.5311 22.509C14.6415 22.5441 14.7177 22.6451 14.7209 22.7609L14.8048 25.7301C14.8101 25.9156 14.6358 26.0529 14.4581 25.9996C13.1501 25.6073 8.6494 24.2566 7.67018 23.9536C7.56545 23.9212 7.49474 23.8307 7.48652 23.7213C7.44385 23.1538 7.31189 21.3821 7.26596 20.5712C7.25554 20.3873 7.42901 20.2568 7.60455 20.3124Z" fill="white"/>
<path d="M14.3825 19.9219L7.47974 17.838C7.40319 17.8149 7.32095 17.7979 7.24709 17.8286C7.17335 17.8592 7.09204 17.9266 7.09204 18.0754C7.09204 18.4198 7.22817 18.5745 7.36429 18.6199L14.1938 20.6286C14.2687 20.6506 14.3469 20.6648 14.4236 20.6507C14.5586 20.6259 14.715 20.5546 14.715 20.3895C14.715 20.2997 14.6996 20.2221 14.6782 20.1589C14.6352 20.0313 14.5114 19.9608 14.3825 19.9219Z" fill="white"/>
<circle cx="28.3276" cy="20.7979" r="2.31413" fill="#3B82F6"/>
<circle cx="4.91422" cy="20.7979" r="2.31413" fill="#3B82F6"/>
<ellipse cx="23.35" cy="14.55" rx="1.55" ry="1.05" fill="#FF7F81"/>
<ellipse cx="9.74995" cy="14.55" rx="1.55" ry="1.05" fill="#FF7F81"/>
<path d="M54.14 23.84C54.14 23.84 53.9933 23.6666 53.7 23.32C53.4066 22.9733 53.0066 22.5 52.5 21.9C52.0066 21.3 51.44 20.62 50.8 19.86C50.16 19.1 49.4933 18.3066 48.8 17.48C48.12 16.6533 47.4466 15.84 46.78 15.04C46.1133 14.24 45.5 13.5 44.94 12.82H44.86C44.8866 14.74 44.9066 16.4266 44.92 17.88C44.9333 19.3333 44.9533 20.5333 44.98 21.48C44.9933 21.8266 45.0333 22.16 45.1 22.48C45.1666 22.7866 45.2666 22.94 45.4 22.94H46.5C46.5666 22.94 46.6133 22.98 46.64 23.06C46.6666 23.1266 46.68 23.2066 46.68 23.3C46.68 23.5 46.62 23.6 46.5 23.6C46.0066 23.6 45.6 23.6 45.28 23.6C44.96 23.5866 44.66 23.58 44.38 23.58C43.9266 23.58 43.4866 23.5866 43.06 23.6C42.6333 23.6266 42.28 23.64 42 23.64C41.9466 23.64 41.9066 23.6066 41.88 23.54C41.8666 23.46 41.86 23.38 41.86 23.3C41.86 23.22 41.8666 23.1466 41.88 23.08C41.9066 23 41.9466 22.96 42 22.96H42.66C42.9533 22.96 43.1666 22.9266 43.3 22.86C43.4466 22.78 43.5266 22.6333 43.54 22.42C43.6066 21.74 43.66 20.9466 43.7 20.04C43.7533 19.1333 43.7933 18.18 43.82 17.18C43.86 16.18 43.8866 15.2066 43.9 14.26C43.9266 13.3 43.94 12.4333 43.94 11.66L43.8 11.5C43.64 11.3 43.4866 11.1533 43.34 11.06C43.2066 10.9533 43.0333 10.88 42.82 10.84C42.62 10.8 42.3266 10.78 41.94 10.78C41.9 10.78 41.8666 10.7533 41.84 10.7C41.8266 10.6333 41.82 10.5666 41.82 10.5C41.82 10.42 41.8266 10.34 41.84 10.26C41.8666 10.18 41.9 10.14 41.94 10.14C42.1133 10.14 42.3533 10.1466 42.66 10.16C42.98 10.16 43.32 10.16 43.68 10.16C44.0533 10.16 44.4066 10.1666 44.74 10.18C45.0733 10.18 45.3466 10.18 45.56 10.18C45.56 10.18 45.6866 10.3466 45.94 10.68C46.2066 11 46.5533 11.4333 46.98 11.98C47.42 12.5266 47.9066 13.14 48.44 13.82C48.9866 14.4866 49.54 15.1733 50.1 15.88C50.66 16.5866 51.1933 17.2666 51.7 17.92C52.2066 18.56 52.6466 19.12 53.02 19.6C53.4066 20.08 53.68 20.4333 53.84 20.66H53.92C53.9066 19.42 53.8933 18.2333 53.88 17.1C53.8666 15.9666 53.8466 14.9333 53.82 14C53.7933 13.0533 53.7533 12.2533 53.7 11.6C53.66 11.0666 53.5133 10.8 53.26 10.8H52.3C52.2466 10.8 52.2 10.7733 52.16 10.72C52.1333 10.6533 52.12 10.5866 52.12 10.52C52.12 10.44 52.1333 10.36 52.16 10.28C52.2 10.1866 52.2466 10.14 52.3 10.14C52.5933 10.14 52.9466 10.1466 53.36 10.16C53.7733 10.1733 54.1466 10.18 54.48 10.18C54.8533 10.18 55.2533 10.1733 55.68 10.16C56.1066 10.1333 56.4933 10.12 56.84 10.12C56.8933 10.12 56.9333 10.1666 56.96 10.26C57 10.3533 57.02 10.44 57.02 10.52C57.02 10.6933 56.96 10.78 56.84 10.78H55.9C55.62 10.78 55.44 10.8466 55.36 10.98C55.2933 11.1133 55.24 11.3466 55.2 11.68C55.16 12.0533 55.12 12.6533 55.08 13.48C55.04 14.2933 55.0066 15.26 54.98 16.38C54.9533 17.4866 54.9266 18.68 54.9 19.96C54.8866 21.24 54.88 22.5333 54.88 23.84C54.8533 23.9333 54.7466 23.98 54.56 23.98C54.3733 23.98 54.2333 23.9333 54.14 23.84ZM61.4262 18.52C61.8529 18.5066 62.2595 18.4866 62.6462 18.46C63.0462 18.4333 63.3795 18.4066 63.6462 18.38C63.9129 18.34 64.0595 18.3133 64.0862 18.3L64.2262 17.46C64.2529 17.3933 64.3462 17.36 64.5062 17.36C64.5462 17.36 64.5995 17.3733 64.6662 17.4C64.7329 17.4133 64.7662 17.4466 64.7662 17.5C64.7395 17.7133 64.7195 17.92 64.7062 18.12C64.6929 18.3066 64.6862 18.5133 64.6862 18.74C64.6862 18.94 64.6929 19.16 64.7062 19.4C64.7195 19.6266 64.7395 19.8533 64.7662 20.08C64.7662 20.12 64.7262 20.1533 64.6462 20.18C64.5795 20.1933 64.5129 20.2 64.4462 20.2C64.3929 20.2 64.3395 20.1933 64.2862 20.18C64.2462 20.1666 64.2262 20.1466 64.2262 20.12L64.0662 19.26C64.0395 19.2333 63.8929 19.2066 63.6262 19.18C63.3729 19.1533 63.0529 19.1266 62.6662 19.1C62.2795 19.0733 61.8662 19.0533 61.4262 19.04V21.46C61.4262 22.02 61.4662 22.4133 61.5462 22.64C61.6262 22.8533 61.7195 22.96 61.8262 22.96H62.4662C63.0929 22.9466 63.6862 22.8866 64.2462 22.78C64.8195 22.6733 65.2395 22.5266 65.5062 22.34L65.6062 21.56C65.6195 21.52 65.6595 21.4933 65.7262 21.48C65.8062 21.4533 65.8729 21.44 65.9262 21.44C65.9929 21.44 66.0529 21.4466 66.1062 21.46C66.1595 21.4733 66.1795 21.5066 66.1662 21.56C66.1129 21.9066 66.0795 22.3 66.0662 22.74C66.0529 23.1666 66.0462 23.56 66.0462 23.92C66.0462 23.96 66.0129 23.9866 65.9462 24C65.8929 24.0133 65.8462 24.02 65.8062 24.02C65.7529 24.02 65.6862 24.0133 65.6062 24C65.5395 23.9866 65.5062 23.96 65.5062 23.92V23.6H61.9462C61.1329 23.6 60.5062 23.6 60.0662 23.6C59.6262 23.6133 59.2995 23.62 59.0862 23.62C58.8729 23.6333 58.6929 23.64 58.5462 23.64C58.4929 23.64 58.4529 23.6 58.4262 23.52C58.4129 23.44 58.4062 23.3733 58.4062 23.32C58.4062 23.2533 58.4129 23.1933 58.4262 23.14C58.4529 23.0733 58.4862 23.04 58.5262 23.04H59.4262C59.5729 23.04 59.6595 23.0066 59.6862 22.94C59.7129 22.8733 59.7262 22.7133 59.7262 22.46V16.16C59.7262 15.6 59.6862 15.1933 59.6062 14.94C59.5395 14.6866 59.4462 14.56 59.3262 14.56H58.6062C58.4462 14.56 58.3662 14.46 58.3662 14.26C58.3662 14.0466 58.4395 13.94 58.5862 13.94C58.8395 13.94 59.1462 13.9466 59.5062 13.96C59.8795 13.9733 60.2529 13.98 60.6262 13.98H64.7662V13.66C64.7662 13.62 64.7929 13.5933 64.8462 13.58C64.8995 13.5533 64.9529 13.54 65.0062 13.54C65.0595 13.54 65.1195 13.5533 65.1862 13.58C65.2662 13.5933 65.3062 13.62 65.3062 13.66C65.3062 14.02 65.3129 14.4133 65.3262 14.84C65.3529 15.2666 65.3929 15.6266 65.4462 15.92C65.4595 15.96 65.4395 15.9933 65.3862 16.02C65.3329 16.0333 65.2795 16.04 65.2262 16.04C65.1729 16.04 65.0995 16.0333 65.0062 16.02C64.9262 15.9933 64.8862 15.96 64.8862 15.92C64.8329 15.7333 64.7662 15.5333 64.6862 15.32C64.6195 15.1066 64.5062 14.96 64.3462 14.88C64.0929 14.7866 63.7795 14.7133 63.4062 14.66C63.0329 14.6066 62.5329 14.58 61.9062 14.58C61.7195 14.5933 61.5929 14.6533 61.5262 14.76C61.4595 14.8533 61.4262 15.0133 61.4262 15.24V18.52ZM81.3421 14.46C81.1955 14.46 81.0888 14.52 81.0221 14.64C80.8888 14.8666 80.7088 15.2266 80.4821 15.72C80.2688 16.2133 80.0355 16.78 79.7821 17.42C79.5288 18.06 79.2688 18.72 79.0021 19.4C78.7488 20.0666 78.5088 20.7133 78.2821 21.34C78.0555 21.9533 77.8621 22.4866 77.7021 22.94C77.5421 23.3933 77.4355 23.7066 77.3821 23.88C77.3288 24 77.1955 24.06 76.9821 24.06C76.7821 24.06 76.6555 23.9933 76.6021 23.86C76.5355 23.6066 76.4355 23.24 76.3021 22.76C76.1688 22.2666 76.0088 21.72 75.8221 21.12C75.6488 20.52 75.4555 19.9133 75.2421 19.3C75.0421 18.6733 74.8288 18.1 74.6021 17.58C74.3888 18.1266 74.1688 18.7266 73.9421 19.38C73.7155 20.0333 73.5021 20.6733 73.3021 21.3C73.1155 21.9266 72.9488 22.4733 72.8021 22.94C72.6688 23.3933 72.5755 23.7066 72.5221 23.88C72.4688 24 72.3355 24.06 72.1221 24.06C71.9221 24.06 71.7955 23.9933 71.7421 23.86C71.6755 23.5666 71.5355 23.1533 71.3221 22.62C71.1221 22.0866 70.8821 21.4866 70.6021 20.82C70.3221 20.1533 70.0288 19.4733 69.7221 18.78C69.4288 18.0866 69.1355 17.4333 68.8421 16.82C68.5621 16.1933 68.3221 15.6666 68.1221 15.24C67.9621 14.9066 67.8155 14.7 67.6821 14.62C67.5488 14.5266 67.3421 14.48 67.0621 14.48C66.9821 14.48 66.9421 14.4 66.9421 14.24C66.9421 14.1733 66.9488 14.1066 66.9621 14.04C66.9888 13.9733 67.0221 13.94 67.0621 13.94C67.4355 13.94 67.7555 13.9466 68.0221 13.96C68.2888 13.9733 68.6021 13.98 68.9621 13.98C69.2155 13.98 69.4755 13.9733 69.7421 13.96C70.0088 13.9466 70.3688 13.94 70.8221 13.94C70.8755 13.94 70.9088 13.9666 70.9221 14.02C70.9355 14.0733 70.9421 14.1333 70.9421 14.2C70.9421 14.3733 70.9021 14.46 70.8221 14.46H70.1621C70.0155 14.46 69.9421 14.52 69.9421 14.64C69.9421 14.6933 70.0021 14.8866 70.1221 15.22C70.2421 15.5533 70.3955 15.98 70.5821 16.5C70.7821 17.0066 70.9955 17.56 71.2221 18.16C71.4488 18.76 71.6688 19.3466 71.8821 19.92C72.1088 20.4933 72.3088 21.0066 72.4821 21.46C72.6688 20.8333 72.8755 20.2066 73.1021 19.58C73.3421 18.94 73.5555 18.3466 73.7421 17.8C73.9421 17.24 74.0755 16.7733 74.1421 16.4C73.9688 15.9866 73.7955 15.6 73.6221 15.24C73.4621 14.9066 73.3155 14.7 73.1821 14.62C73.0488 14.5266 72.8421 14.48 72.5621 14.48C72.4821 14.48 72.4421 14.4 72.4421 14.24C72.4421 14.1733 72.4488 14.1066 72.4621 14.04C72.4888 13.9733 72.5221 13.94 72.5621 13.94C72.9355 13.94 73.2555 13.9466 73.5221 13.96C73.7888 13.9733 74.1021 13.98 74.4621 13.98C74.7155 13.98 75.0221 13.9733 75.3821 13.96C75.7555 13.9466 76.1688 13.94 76.6221 13.94C76.6755 13.94 76.7088 13.9666 76.7221 14.02C76.7355 14.0733 76.7421 14.1333 76.7421 14.2C76.7421 14.3733 76.7021 14.46 76.6221 14.46H75.6621C75.5155 14.46 75.4421 14.52 75.4421 14.64C75.4421 14.6933 75.4821 14.9 75.5621 15.26C75.6555 15.6066 75.7755 16.0533 75.9221 16.6C76.0821 17.1333 76.2488 17.7133 76.4221 18.34C76.5955 18.9666 76.7688 19.58 76.9421 20.18C77.1288 20.7666 77.2955 21.28 77.4421 21.72C77.6688 20.9333 77.9088 20.1733 78.1621 19.44C78.4288 18.7066 78.6755 18.0333 78.9021 17.42C79.1288 16.8066 79.3088 16.28 79.4421 15.84C79.5888 15.4 79.6621 15.08 79.6621 14.88C79.6621 14.72 79.6355 14.6133 79.5821 14.56C79.5421 14.5066 79.4888 14.48 79.4221 14.48H78.6021C78.5088 14.48 78.4621 14.4066 78.4621 14.26C78.4621 14.1933 78.4688 14.1266 78.4821 14.06C78.5088 13.98 78.5355 13.94 78.5621 13.94C78.8955 13.94 79.1555 13.9466 79.3421 13.96C79.5421 13.96 79.7155 13.9666 79.8621 13.98C80.0221 13.98 80.2021 13.98 80.4021 13.98C80.6421 13.98 80.8621 13.9733 81.0621 13.96C81.2621 13.9466 81.5288 13.94 81.8621 13.94C81.9155 13.94 81.9488 13.9666 81.9621 14.02C81.9888 14.0733 82.0021 14.1333 82.0021 14.2C82.0021 14.3733 81.9555 14.46 81.8621 14.46H81.3421ZM88.1407 14.04C88.1274 13.9733 88.1141 13.92 88.1007 13.88C88.1007 13.8266 88.1007 13.7866 88.1007 13.76C88.1007 13.64 88.1674 13.58 88.3007 13.58C88.4074 13.58 88.4807 13.6 88.5207 13.64C88.5741 13.6666 88.6141 13.7533 88.6407 13.9C88.7074 14.1133 88.7474 14.3066 88.7607 14.48C88.7874 14.64 88.8141 14.8 88.8407 14.96C88.8807 15.1333 88.9141 15.2933 88.9407 15.44C88.9807 15.5733 89.0207 15.7933 89.0607 16.1C89.0607 16.2066 88.9741 16.26 88.8007 16.26C88.7474 16.26 88.6941 16.2533 88.6407 16.24C88.5874 16.2133 88.5474 16.1666 88.5207 16.1C88.3474 15.6066 88.0741 15.2 87.7007 14.88C87.3274 14.56 86.9074 14.3933 86.4407 14.38C86.0674 14.38 85.7074 14.5 85.3607 14.74C85.0274 14.98 84.8607 15.3133 84.8607 15.74C84.8607 16.1666 85.0074 16.54 85.3007 16.86C85.5941 17.18 85.9607 17.48 86.4007 17.76C86.8407 18.04 87.2807 18.34 87.7207 18.66C88.1607 18.98 88.5274 19.36 88.8207 19.8C89.1141 20.24 89.2607 20.78 89.2607 21.42C89.2607 21.9666 89.0874 22.42 88.7407 22.78C88.4074 23.14 87.9807 23.4133 87.4607 23.6C86.9541 23.7733 86.4341 23.86 85.9007 23.86C85.5274 23.86 85.1474 23.8066 84.7607 23.7C84.3874 23.6066 84.0807 23.5066 83.8407 23.4C83.8407 23.5466 83.8274 23.64 83.8007 23.68C83.7874 23.72 83.7207 23.7533 83.6007 23.78H83.5207C83.4141 23.78 83.3541 23.7266 83.3407 23.62C83.3007 23.1533 83.2474 22.7333 83.1807 22.36C83.1274 21.9733 83.0674 21.5 83.0007 20.94C83.0007 20.8733 83.0341 20.8266 83.1007 20.8C83.1674 20.76 83.2407 20.74 83.3207 20.74C83.4407 20.74 83.5074 20.7733 83.5207 20.84C83.6407 21.24 83.8207 21.6266 84.0607 22C84.3007 22.36 84.5941 22.66 84.9407 22.9C85.2874 23.1266 85.6674 23.24 86.0807 23.24C86.4674 23.24 86.8341 23.1266 87.1807 22.9C87.5407 22.66 87.7207 22.3 87.7207 21.82C87.7207 21.3533 87.5741 20.9533 87.2807 20.62C86.9874 20.2733 86.6207 19.9533 86.1807 19.66C85.7541 19.3666 85.3207 19.06 84.8807 18.74C84.4541 18.42 84.0941 18.06 83.8007 17.66C83.5074 17.26 83.3607 16.7733 83.3607 16.2C83.3607 15.6666 83.5141 15.22 83.8207 14.86C84.1274 14.5 84.5207 14.2266 85.0007 14.04C85.4941 13.8533 86.0141 13.76 86.5607 13.76C86.8941 13.76 87.1941 13.7933 87.4607 13.86C87.7407 13.9133 87.9674 13.9733 88.1407 14.04ZM93.8285 18.52C94.2552 18.5066 94.6619 18.4866 95.0485 18.46C95.4485 18.4333 95.7819 18.4066 96.0485 18.38C96.3152 18.34 96.4619 18.3133 96.4885 18.3L96.6285 17.46C96.6552 17.3933 96.7485 17.36 96.9085 17.36C96.9485 17.36 97.0019 17.3733 97.0685 17.4C97.1352 17.4133 97.1685 17.4466 97.1685 17.5C97.1419 17.7133 97.1219 17.92 97.1085 18.12C97.0952 18.3066 97.0885 18.5133 97.0885 18.74C97.0885 18.94 97.0952 19.16 97.1085 19.4C97.1219 19.6266 97.1419 19.8533 97.1685 20.08C97.1685 20.12 97.1285 20.1533 97.0485 20.18C96.9819 20.1933 96.9152 20.2 96.8485 20.2C96.7952 20.2 96.7419 20.1933 96.6885 20.18C96.6485 20.1666 96.6285 20.1466 96.6285 20.12L96.4685 19.26C96.4419 19.2333 96.2952 19.2066 96.0285 19.18C95.7752 19.1533 95.4552 19.1266 95.0685 19.1C94.6819 19.0733 94.2685 19.0533 93.8285 19.04V21.46C93.8285 22.02 93.8685 22.4133 93.9485 22.64C94.0285 22.8533 94.1219 22.96 94.2285 22.96H94.8685C95.4952 22.9466 96.0885 22.8866 96.6485 22.78C97.2219 22.6733 97.6419 22.5266 97.9085 22.34L98.0085 21.56C98.0219 21.52 98.0619 21.4933 98.1285 21.48C98.2085 21.4533 98.2752 21.44 98.3285 21.44C98.3952 21.44 98.4552 21.4466 98.5085 21.46C98.5619 21.4733 98.5819 21.5066 98.5685 21.56C98.5152 21.9066 98.4819 22.3 98.4685 22.74C98.4552 23.1666 98.4485 23.56 98.4485 23.92C98.4485 23.96 98.4152 23.9866 98.3485 24C98.2952 24.0133 98.2485 24.02 98.2085 24.02C98.1552 24.02 98.0885 24.0133 98.0085 24C97.9419 23.9866 97.9085 23.96 97.9085 23.92V23.6H94.3485C93.5352 23.6 92.9085 23.6 92.4685 23.6C92.0285 23.6133 91.7019 23.62 91.4885 23.62C91.2752 23.6333 91.0952 23.64 90.9485 23.64C90.8952 23.64 90.8552 23.6 90.8285 23.52C90.8152 23.44 90.8085 23.3733 90.8085 23.32C90.8085 23.2533 90.8152 23.1933 90.8285 23.14C90.8552 23.0733 90.8885 23.04 90.9285 23.04H91.8285C91.9752 23.04 92.0619 23.0066 92.0885 22.94C92.1152 22.8733 92.1285 22.7133 92.1285 22.46V16.16C92.1285 15.6 92.0885 15.1933 92.0085 14.94C91.9419 14.6866 91.8485 14.56 91.7285 14.56H91.0085C90.8485 14.56 90.7685 14.46 90.7685 14.26C90.7685 14.0466 90.8419 13.94 90.9885 13.94C91.2419 13.94 91.5485 13.9466 91.9085 13.96C92.2819 13.9733 92.6552 13.98 93.0285 13.98H97.1685V13.66C97.1685 13.62 97.1952 13.5933 97.2485 13.58C97.3019 13.5533 97.3552 13.54 97.4085 13.54C97.4619 13.54 97.5219 13.5533 97.5885 13.58C97.6685 13.5933 97.7085 13.62 97.7085 13.66C97.7085 14.02 97.7152 14.4133 97.7285 14.84C97.7552 15.2666 97.7952 15.6266 97.8485 15.92C97.8619 15.96 97.8419 15.9933 97.7885 16.02C97.7352 16.0333 97.6819 16.04 97.6285 16.04C97.5752 16.04 97.5019 16.0333 97.4085 16.02C97.3285 15.9933 97.2885 15.96 97.2885 15.92C97.2352 15.7333 97.1685 15.5333 97.0885 15.32C97.0219 15.1066 96.9085 14.96 96.7485 14.88C96.4952 14.7866 96.1819 14.7133 95.8085 14.66C95.4352 14.6066 94.9352 14.58 94.3085 14.58C94.1219 14.5933 93.9952 14.6533 93.9285 14.76C93.8619 14.8533 93.8285 15.0133 93.8285 15.24V18.52ZM103.164 18.52C103.591 18.5066 103.998 18.4866 104.384 18.46C104.784 18.4333 105.118 18.4066 105.384 18.38C105.651 18.34 105.798 18.3133 105.824 18.3L105.964 17.46C105.991 17.3933 106.084 17.36 106.244 17.36C106.284 17.36 106.338 17.3733 106.404 17.4C106.471 17.4133 106.504 17.4466 106.504 17.5C106.478 17.7133 106.458 17.92 106.444 18.12C106.431 18.3066 106.424 18.5133 106.424 18.74C106.424 18.94 106.431 19.16 106.444 19.4C106.458 19.6266 106.478 19.8533 106.504 20.08C106.504 20.12 106.464 20.1533 106.384 20.18C106.318 20.1933 106.251 20.2 106.184 20.2C106.131 20.2 106.078 20.1933 106.024 20.18C105.984 20.1666 105.964 20.1466 105.964 20.12L105.804 19.26C105.778 19.2333 105.631 19.2066 105.364 19.18C105.111 19.1533 104.791 19.1266 104.404 19.1C104.018 19.0733 103.604 19.0533 103.164 19.04V21.46C103.164 22.02 103.204 22.4133 103.284 22.64C103.364 22.8533 103.458 22.96 103.564 22.96H104.204C104.831 22.9466 105.424 22.8866 105.984 22.78C106.558 22.6733 106.978 22.5266 107.244 22.34L107.344 21.56C107.358 21.52 107.398 21.4933 107.464 21.48C107.544 21.4533 107.611 21.44 107.664 21.44C107.731 21.44 107.791 21.4466 107.844 21.46C107.898 21.4733 107.918 21.5066 107.904 21.56C107.851 21.9066 107.818 22.3 107.804 22.74C107.791 23.1666 107.784 23.56 107.784 23.92C107.784 23.96 107.751 23.9866 107.684 24C107.631 24.0133 107.584 24.02 107.544 24.02C107.491 24.02 107.424 24.0133 107.344 24C107.278 23.9866 107.244 23.96 107.244 23.92V23.6H103.684C102.871 23.6 102.244 23.6 101.804 23.6C101.364 23.6133 101.038 23.62 100.824 23.62C100.611 23.6333 100.431 23.64 100.284 23.64C100.231 23.64 100.191 23.6 100.164 23.52C100.151 23.44 100.144 23.3733 100.144 23.32C100.144 23.2533 100.151 23.1933 100.164 23.14C100.191 23.0733 100.224 23.04 100.264 23.04H101.164C101.311 23.04 101.398 23.0066 101.424 22.94C101.451 22.8733 101.464 22.7133 101.464 22.46V16.16C101.464 15.6 101.424 15.1933 101.344 14.94C101.278 14.6866 101.184 14.56 101.064 14.56H100.344C100.184 14.56 100.104 14.46 100.104 14.26C100.104 14.0466 100.178 13.94 100.324 13.94C100.578 13.94 100.884 13.9466 101.244 13.96C101.618 13.9733 101.991 13.98 102.364 13.98H106.504V13.66C106.504 13.62 106.531 13.5933 106.584 13.58C106.638 13.5533 106.691 13.54 106.744 13.54C106.798 13.54 106.858 13.5533 106.924 13.58C107.004 13.5933 107.044 13.62 107.044 13.66C107.044 14.02 107.051 14.4133 107.064 14.84C107.091 15.2666 107.131 15.6266 107.184 15.92C107.198 15.96 107.178 15.9933 107.124 16.02C107.071 16.0333 107.018 16.04 106.964 16.04C106.911 16.04 106.838 16.0333 106.744 16.02C106.664 15.9933 106.624 15.96 106.624 15.92C106.571 15.7333 106.504 15.5333 106.424 15.32C106.358 15.1066 106.244 14.96 106.084 14.88C105.831 14.7866 105.518 14.7133 105.144 14.66C104.771 14.6066 104.271 14.58 103.644 14.58C103.458 14.5933 103.331 14.6533 103.264 14.76C103.198 14.8533 103.164 15.0133 103.164 15.24V18.52Z" fill="#1F2937"/>
</svg>
