<svg width="25" height="24" viewBox="0 0 25 24" fill="currentColor" xmlns="http://www.w3.org/2000/svg">
<path d="M12.875 12C11.775 12 10.8333 11.6083 10.05 10.825C9.26667 10.0417 8.875 9.1 8.875 8C8.875 6.9 9.26667 5.95833 10.05 5.175C10.8333 4.39167 11.775 4 12.875 4C13.975 4 14.9167 4.39167 15.7 5.175C16.4833 5.95833 16.875 6.9 16.875 8C16.875 9.1 16.4833 10.0417 15.7 10.825C14.9167 11.6083 13.975 12 12.875 12ZM4.875 18V17.2C4.875 16.6333 5.021 16.1127 5.313 15.638C5.605 15.1633 5.99233 14.8007 6.475 14.55C7.50833 14.0333 8.55833 13.646 9.625 13.388C10.6917 13.13 11.775 13.0007 12.875 13C13.975 12.9993 15.0583 13.1287 16.125 13.388C17.1917 13.6473 18.2417 14.0347 19.275 14.55C19.7583 14.8 20.146 15.1627 20.438 15.638C20.73 16.1133 20.8757 16.634 20.875 17.2V18C20.875 18.55 20.6793 19.021 20.288 19.413C19.8967 19.805 19.4257 20.0007 18.875 20H6.875C6.325 20 5.85433 19.8043 5.463 19.413C5.07167 19.0217 4.87567 18.5507 4.875 18Z" />
</svg>
