<svg width="25" height="24" viewBox="0 0 25 24" fill="currentColor" xmlns="http://www.w3.org/2000/svg">
<path d="M20.25 3H4.5C3.328 3 2.375 3.897 2.375 5V19C2.375 20.103 3.328 21 4.5 21H20.25C21.422 21 22.375 20.103 22.375 19V5C22.375 3.897 21.422 3 20.25 3ZM20.25 19H4.5C4.443 19 4.404 18.984 4.387 18.984C4.38033 18.984 4.37633 18.9867 4.375 18.992L4.363 5.046C4.37 5.036 4.415 5 4.5 5H20.25C20.329 5.001 20.372 5.028 20.375 5.008L20.387 18.954C20.38 18.964 20.335 19 20.25 19Z"/>
<path d="M6.375 7H12.375V13H6.375V7ZM13.375 15H6.375V17H18.375V15H14.375H13.375ZM14.375 11H18.375V13H14.375V11ZM14.375 7H18.375V9H14.375V7Z"/>
</svg>
