<svg width="18" height="19" viewBox="0 0 18 19" fill="none" xmlns="http://www.w3.org/2000/svg">
<g clip-path="url(#clip0_114_9125)">
<g clip-path="url(#clip1_114_9125)">
<path d="M5.40747 3.63229H12.5823C13.0007 3.63229 13.3408 3.97172 13.3411 4.39011V15.3442C13.341 15.4363 13.2651 15.512 13.1731 15.5122C13.1358 15.5122 13.1021 15.501 13.0764 15.4829L13.0745 15.4819L9.24634 12.8012L8.99536 12.6255L8.74438 12.8012L4.91528 15.4819L4.87036 15.5044C4.85414 15.5095 4.83635 15.5122 4.81763 15.5122C4.72544 15.5122 4.64975 15.4364 4.64966 15.3442V4.39011C4.64989 3.97187 4.98923 3.63253 5.40747 3.63229Z" fill="#0B64F4" stroke="#0B64F4" stroke-width="0.8748"/>
</g>
</g>
<defs>
<clipPath id="clip0_114_9125">
<rect width="9.56594" height="12.7546" fill="white" transform="translate(4.21216 3.19479)"/>
</clipPath>
<clipPath id="clip1_114_9125">
<rect width="9.56594" height="12.7546" fill="white" transform="translate(4.21216 3.19479)"/>
</clipPath>
</defs>
</svg>
