<svg width="21" height="22" viewBox="0 0 21 22" fill="currentColor" xmlns="http://www.w3.org/2000/svg">
<g clip-path="url(#clip0_105_9664)">
<path d="M13.2083 15.3C13.5333 14.2201 14.207 13.2993 14.8739 12.3818C15.05 12.1415 15.226 11.9011 15.3953 11.6573C16.0656 10.6925 16.4583 9.52453 16.4583 8.26177C16.4583 4.96776 13.7906 2.30005 10.5 2.30005C7.20933 2.30005 4.54163 4.96776 4.54163 8.25838C4.54163 9.52114 4.93433 10.6925 5.60465 11.654C5.77392 11.8977 5.94996 12.1381 6.126 12.3784C6.79631 13.2959 7.47001 14.2201 7.79163 15.2967H13.2083V15.3ZM10.5 19.6334C11.9963 19.6334 13.2083 18.4214 13.2083 16.925V16.3834H7.79163V16.925C7.79163 18.4214 9.00361 19.6334 10.5 19.6334ZM7.79163 8.25838C7.79163 8.5563 7.54788 8.80005 7.24996 8.80005C6.95204 8.80005 6.70829 8.5563 6.70829 8.25838C6.70829 6.16281 8.40439 4.46672 10.5 4.46672C10.7979 4.46672 11.0416 4.71047 11.0416 5.00838C11.0416 5.3063 10.7979 5.55005 10.5 5.55005C9.00361 5.55005 7.79163 6.76203 7.79163 8.25838Z" />
</g>
<defs>
<clipPath id="clip0_105_9664">
<rect width="13" height="17.3333" fill="white" transform="translate(4 2.30005)"/>
</clipPath>
</defs>
</svg>
